# xmcd
#
# Track frame offsets:
#	150
#	9404
#	22587
#	35506
#	50863
#	66575
#	82565
#	97017
#	105965
#	120987
#
# Disc length: 1756 seconds
#
# Revision: 1
# Processed by: cddbd v1.5.1PL2 Copyright (c) Steve Scherf et al.
# Submitted via: audiograbber 1.83.01
#
DISCID=6c06da0a
DTITLE=Spencers - Little Mountain Church
DYEAR=1998
DGENRE=Southern Gospel
TTITLE0=He Was There
TTITLE1=God Sends Holy Angels
TTITLE2=Little Mountain Church
TTITLE3=Rock Of Ages
TTITLE4=God Changed His Mind
TTITLE5=Wonderful Jesus
TTITLE6=Far Side Banks Of Jordan
TTITLE7=Night Can't Fall
TTITLE8=Two Coats
TTITLE9=God's Gonna Move A Mountain
EXTD=
EXTT0=
EXTT1=
EXTT2=
EXTT3=
EXTT4=
EXTT5=
EXTT6=
EXTT7=
EXTT8=
EXTT9=
PLAYORDER=
